<svg version="1.1" viewBox="0.0 0.0 960.0 540.0" fill="none" stroke="none" stroke-linecap="square" stroke-miterlimit="10" xmlns:xlink="http://www.w3.org/1999/xlink" xmlns="http://www.w3.org/2000/svg"><clipPath id="p.0"><path d="m0 0l960.0 0l0 540.0l-960.0 0l0 -540.0z" clip-rule="nonzero"/></clipPath><g clip-path="url(#p.0)"><path fill="#ffffff" d="m0 0l960.0 0l0 540.0l-960.0 0z" fill-rule="evenodd"/><path fill="#20124d" d="m480.0 7.0l280.50378 152.33856l0 223.32288l-280.50378 152.33856l-280.50378 -152.33856l0 -223.32288z" fill-rule="evenodd"/><path stroke="#9900ff" stroke-width="8.0" stroke-linejoin="round" stroke-linecap="butt" d="m480.0 7.0l280.50378 152.33856l0 223.32288l-280.50378 152.33856l-280.50378 -152.33856l0 -223.32288z" fill-rule="evenodd"/><path fill="#efefef" d="m342.4882 340.50394l0 0c0 -67.65704 61.56613 -122.50394 137.51181 -122.50394l0 0c75.94568 0 137.51184 54.846893 137.51184 122.50394l0 0c0 67.65704 -61.566162 122.50394 -137.51184 122.50394l0 0c-75.94568 0 -137.51181 -54.846893 -137.51181 -122.50394z" fill-rule="evenodd"/><path stroke="#ffffff" stroke-width="3.0" stroke-linejoin="round" stroke-linecap="butt" d="m342.4882 340.50394l0 0c0 -67.65704 61.56613 -122.50394 137.51181 -122.50394l0 0c75.94568 0 137.51184 54.846893 137.51184 122.50394l0 0c0 67.65704 -61.566162 122.50394 -137.51184 122.50394l0 0c-75.94568 0 -137.51181 -54.846893 -137.51181 -122.50394z" fill-rule="evenodd"/><path fill="#6d9eeb" d="m341.98425 337.00787l0 0c0 -22.64801 61.56613 -41.007874 137.51181 -41.007874l0 0c75.94565 0 137.51181 18.359863 137.51181 41.007874l0 0c0 22.64801 -61.566162 41.007874 -137.51181 41.007874l0 0c-75.94568 0 -137.51181 -18.359863 -137.51181 -41.007874z" fill-rule="evenodd"/><path stroke="#ffffff" stroke-width="3.0" stroke-linejoin="round" stroke-linecap="butt" d="m341.98425 337.00787l0 0c0 -22.64801 61.56613 -41.007874 137.51181 -41.007874l0 0c75.94565 0 137.51181 18.359863 137.51181 41.007874l0 0c0 22.64801 -61.566162 41.007874 -137.51181 41.007874l0 0c-75.94568 0 -137.51181 -18.359863 -137.51181 -41.007874z" fill-rule="evenodd"/><path fill="#000000" fill-opacity="0.0" d="m480.0 336.99213l-1.0078735 -118.99213" fill-rule="evenodd"/><path stroke="#ffffff" stroke-width="3.0" stroke-linejoin="round" stroke-linecap="butt" d="m480.0 336.99213l-0.9208069 -108.71124" fill-rule="evenodd"/><path fill="#ffffff" stroke="#ffffff" stroke-width="3.0" stroke-linecap="butt" d="m479.0792 228.28088l3.4022217 3.3450623l-3.4521484 -9.240402l-3.295105 9.297546z" fill-rule="evenodd"/><path fill="#000000" fill-opacity="0.0" d="m479.0 336.0l138.01575 -0.50393677" fill-rule="evenodd"/><path stroke="#ffffff" stroke-width="3.0" stroke-linejoin="round" stroke-linecap="butt" d="m479.0 336.0l127.73456 -0.46640015" fill-rule="evenodd"/><path fill="#ffffff" stroke="#ffffff" stroke-width="3.0" stroke-linecap="butt" d="m606.73456 335.5336l-3.3613892 3.3860474l9.256897 -3.4075623l-9.281555 -3.3399048z" fill-rule="evenodd"/><path fill="#000000" fill-opacity="0.0" d="m480.0 335.0l-50.992126 34.992126" fill-rule="evenodd"/><path stroke="#ffffff" stroke-width="3.0" stroke-linejoin="round" stroke-linecap="butt" d="m480.0 335.0l-42.514893 29.174835" fill-rule="evenodd"/><path fill="#ffffff" stroke="#ffffff" stroke-width="3.0" stroke-linecap="butt" d="m437.4851 364.17484l0.87283325 -4.690674l-5.733917 8.026459l9.551758 -2.4629517z" fill-rule="evenodd"/><path fill="#000000" fill-opacity="0.0" d="m480.0 335.0l29.007874 -57.007874" fill-rule="evenodd"/><path stroke="#000000" stroke-width="1.0" stroke-linejoin="round" stroke-linecap="butt" d="m480.0 335.0l26.286835 -51.66034" fill-rule="evenodd"/><path fill="#000000" stroke="#000000" stroke-width="1.0" stroke-linecap="butt" d="m507.75894 284.0887l0.5859375 -4.7936707l-3.5301514 3.2955322z" fill-rule="evenodd"/><path fill="#000000" fill-opacity="0.0" d="m480.0 335.0l46.992126 -29.007874" fill-rule="evenodd"/><path stroke="#000000" stroke-width="1.0" stroke-linejoin="round" stroke-linecap="butt" d="m480.0 335.0l41.886536 -25.856232" fill-rule="evenodd"/><path fill="#000000" stroke="#000000" stroke-width="1.0" stroke-linecap="butt" d="m522.75415 310.5493l2.9940186 -3.7892456l-4.729248 0.97821045z" fill-rule="evenodd"/><g mask="url(#mask-p.1)"><use xlink:href="#p.1" transform="matrix(1.0 0.0 0.0 -1.0 0.0 369.96293430208834)"/></g><defs><mask id="mask-p.1" maskUnits="userSpaceOnUse" x="172.85363226006345" y="110.05932253162159" width="609.5321148968178" height="201.4893408006967"><linearGradient gradientUnits="userSpaceOnUse" id="gradient-p.1" x1="242.96701704314552" y1="186.97976020946749" x2="242.9669894627106" y2="194.5986857681442"><stop offset="0%" stop-color="#ffffff" stop-opacity="1.0"/><stop offset="100%" stop-color="#ffffff" stop-opacity="0.0"/></linearGradient><rect fill="url(#gradient-p.1)" x="172.85363226006345" y="110.05932253162159" width="609.5321148968178" height="201.4893408006967"/></mask></defs><g id="p.1"><g filter="url(#shadowFilter-p.2)"><use xlink:href="#p.2" transform="matrix(1.0 0.0 0.0 1.0 -1.113384776902906 7.922144619422584)"/></g><defs><filter id="shadowFilter-p.2" filterUnits="userSpaceOnUse"><feGaussianBlur in="SourceAlpha" stdDeviation="23.0" result="blur"/><feComponentTransfer in="blur" color-interpolation-filters="sRGB"><feFuncR type="linear" slope="0" intercept="0.0"/><feFuncG type="linear" slope="0" intercept="0.0"/><feFuncB type="linear" slope="0" intercept="0.0"/><feFuncA type="linear" slope="0.59" intercept="0"/></feComponentTransfer></filter></defs><g id="p.2"><path fill="#eeeeee" d="m260.32318 138.00099c-3.221283 0 -6.0726624 0.48431396 -8.554169 1.4529419c-2.4815216 0.9601288 -4.4250336 2.4980469 -5.8305664 4.6137238c-1.4055328 2.1156921 -2.1082764 4.923874 -2.1082764 8.42453c0 2.3960876 0.3395996 4.3928223 1.0188293 5.990219c0.6859436 1.5888824 1.6072845 2.8549042 2.7639618 3.7980347c1.1566925 0.9346466 2.427719 1.6908569 3.8130646 2.268631c1.3853607 0.56929016 2.7808075 1.062088 4.18631 1.4784393c0.9885559 0.31437683 1.9266968 0.59051514 2.814392 0.8284302c0.8876953 0.23791504 1.6812439 0.5395508 2.3806458 0.9049072c0.70614624 0.36535645 1.2542114 0.82418823 1.6442566 1.3764801c0.39678955 0.54377747 0.5951843 1.2830048 0.5951843 2.2176514c0 0.9941101 -0.16479492 1.8055573 -0.4942932 2.434311c-0.3295288 0.6202545 -0.8473511 1.062088 -1.5534668 1.3255005c-0.69940186 0.26339722 -1.6274719 0.39509583 -2.7841492 0.39509583c-1.116333 0 -2.1284485 -0.07647705 -3.0363312 -0.2294159c-0.77656555 -0.13809204 -1.4793091 -0.32279968 -2.1082764 -0.5541382l0 0l0 -6.188034l-9.603287 0l0 10.4127655c0.57836914 0.36535645 1.5265808 0.8369293 2.8446808 1.4147186c1.3248138 0.5692749 2.9892578 1.062088 4.993286 1.4784241c2.0040436 0.4248352 4.243469 0.6372528 6.718277 0.6372528c4.0954895 0 7.4949646 -0.5352936 10.198425 -1.6058807c2.710144 -1.0705872 4.714203 -2.752945 6.0121155 -5.0470734c1.304657 -2.3026123 1.9569702 -5.3062134 1.9569702 -9.010803c0 -2.2941132 -0.37322998 -4.222885 -1.11969 -5.7862854c-0.7464905 -1.5718994 -1.7384338 -2.8549042 -2.9757996 -3.8490143c-1.2373962 -0.99412537 -2.5891113 -1.7885742 -4.055176 -2.3833466c-1.4660645 -0.6032715 -2.9220276 -1.1385651 -4.3678894 -1.6058807c-1.116333 -0.3653717 -2.1418762 -0.67974854 -3.0766602 -0.94314575c-0.92803955 -0.26339722 -1.7451477 -0.54803467 -2.4512634 -0.85391235c-0.69940186 -0.3143921 -1.2340393 -0.71798706 -1.6039124 -1.2108002c-0.36987305 -0.501297 -0.5548096 -1.1682892 -0.5548096 -2.0009766c0 -1.206543 0.35977173 -2.0434723 1.0793762 -2.510788c0.72628784 -0.46733093 1.83255 -0.70098877 3.318756 -0.70098877c0.9482422 0 1.7922058 0.06373596 2.531952 0.19117737c0.62677 0.10700989 1.2084656 0.2529602 1.7451477 0.4378357l0 0l0 4.9278717l9.421692 0l0 -9.393158c-0.3765869 -0.26341248 -1.1432495 -0.64151 -2.2999268 -1.1343231c-1.1567078 -0.50131226 -2.686615 -0.9601288 -4.589813 -1.3764648c-1.8964539 -0.41635132 -4.18631 -0.6245117 -6.869568 -0.6245117z" fill-rule="evenodd"/><path fill="#eeeeee" d="m299.49524 138.2304c-4.1762085 0 -7.743805 0.8369293 -10.70282 2.510788c-2.95224 1.6738586 -5.2253113 4.142166 -6.8191223 7.4049225c-1.5870972 3.2627563 -2.3806458 7.294464 -2.3806458 12.095123c0 4.9026184 0.8372803 9.002304 2.5117798 12.299042c1.67453 3.2882385 3.9778442 5.756546 6.909912 7.4049225c2.9320984 1.6398621 6.3215027 2.4598083 10.168182 2.4598083c2.6025696 0 4.8722534 -0.48431396 6.8090515 -1.4529419c1.943512 -0.9686279 3.5877686 -2.3408508 4.93277 -4.116684c1.3450012 -1.7758179 2.4310913 -3.8617706 3.2582397 -6.2578583l-4.710846 -3.6068573c-0.5379944 1.2575073 -1.1701355 2.4598083 -1.8964233 3.6068573c-0.7196045 1.1470642 -1.5568542 2.0732117 -2.5117798 2.7784424c-0.9482422 0.7052307 -2.020874 1.0578461 -3.217926 1.0578461c-1.3248291 0 -2.451233 -0.25915527 -3.379303 -0.77745056c-0.92803955 -0.52679443 -1.6913147 -1.3509827 -2.289856 -2.4725494c-0.59851074 -1.121582 -1.0423584 -2.5830078 -1.331543 -4.384323c-0.28915405 -1.8013153 -0.43374634 -3.9807281 -0.43374634 -6.538254c0 -3.3392181 0.19503784 -6.066681 0.5850525 -8.182373c0.39004517 -2.1156921 1.0188599 -3.6705933 1.886383 -4.6647186c0.87423706 -0.9941101 2.0107422 -1.4911652 3.409546 -1.4911652c0.9146118 0 1.6476135 0.16992188 2.1990662 0.50979614c0.053894043 0.032821655 0.10769653 0.06674194 0.16140747 0.10177612l0 0l0 8.794327l10.470795 0l0 -13.701019c-0.5379944 -0.4248352 -1.4156189 -0.8963928 -2.6328125 -1.4147034c-1.2172241 -0.5182953 -2.7471619 -0.97288513 -4.589813 -1.3637238c-1.835907 -0.39935303 -3.9710999 -0.59902954 -6.405548 -0.59902954z" fill-rule="evenodd"/><path fill="#eeeeee" d="m326.88254 119.99213c-2.3940735 0 -4.263611 0.6669922 -5.608612 2.0009842c-1.3450012 1.3254929 -2.017517 3.2669983 -2.017517 5.824524c0 2.557518 0.67251587 4.503273 2.017517 5.8372574c1.3449707 1.3339996 3.2145386 2.0009918 5.608612 2.0009918c2.4411926 0 4.320801 -0.6669922 5.638916 -2.0009918c1.3247986 -1.3339844 1.9872131 -3.2797394 1.9872131 -5.8372574c0 -2.5575256 -0.66241455 -4.499031 -1.9872131 -5.824524c-1.3181152 -1.333992 -3.1977234 -2.0009842 -5.638916 -2.0009842zm-9.542725 19.028473l0 6.971573l0.4942627 0.1529541c0.7464905 0.20391846 1.2844849 0.4375763 1.6140137 0.7009735c0.3295288 0.26339722 0.4942932 0.7094879 0.4942932 1.3382416l0 23.565735c0 1.4104614 -0.2185669 2.366333 -0.6557007 2.8676453c-0.4303894 0.4928131 -1.0390015 0.7392273 -1.8258362 0.7392273l-0.121032715 0l0 6.181381l19.65039 0l0 -6.181381l-0.13113403 0c-0.7397461 0 -1.3382874 -0.24641418 -1.7955933 -0.7392273c-0.45056152 -0.50131226 -0.6758423 -1.4571838 -0.6758423 -2.8676453l0 -32.729477z" fill-rule="evenodd"/><path fill="#eeeeee" d="m359.1782 145.44414c0.7397461 0 1.3887024 0.18267822 1.9468689 0.54803467c0.5581665 0.3653717 0.99194336 1.0323639 1.3013 2.0009918c0.3093567 0.9601288 0.54470825 2.353592 0.7061157 4.1804047c0.11819458 1.2842102 0.20645142 2.8518677 0.26483154 4.702942l-9.010834 0c0.045959473 -1.504364 0.12335205 -2.8213654 0.23217773 -3.9509888c0.18829346 -1.962738 0.48754883 -3.492157 0.8977661 -4.5882416c0.41696167 -1.0960846 0.9246826 -1.8522949 1.5232239 -2.268631c0.59851074 -0.41633606 1.3113708 -0.6245117 2.1385498 -0.6245117zm-0.31271362 -7.290207c-3.7592773 0 -7.0545044 0.92614746 -9.885742 2.7784271c-2.8312073 1.8522949 -5.0235596 4.452301 -6.5770264 7.8000183c-1.5467224 3.3392334 -2.3200989 7.277466 -2.3200989 11.814728c0 4.758194 0.77337646 8.768646 2.3200989 12.031403c1.5534668 3.2627563 3.8265076 5.7310486 6.819153 7.4049225c2.9993286 1.6653595 6.6072693 2.4980316 10.823853 2.4980316c2.7639465 0 5.147949 -0.37809753 7.152008 -1.1343079c2.0040588 -0.7562103 3.7088318 -1.9032745 5.1143494 -3.4411774c1.4055176 -1.5464172 2.5622253 -3.4411926 3.4700928 -5.684326l-4.952942 -4.0784454c-0.6187134 1.2575226 -1.3214722 2.3705902 -2.1082764 3.3392181c-0.7868347 0.96014404 -1.6980591 1.7036133 -2.7337036 2.2304077c-1.0289307 0.5182953 -2.286499 0.77745056 -3.7727356 0.77745056c-1.486206 0 -2.7471313 -0.24641418 -3.7828064 -0.7392273c-1.0356445 -0.50131226 -1.8527222 -1.300003 -2.451233 -2.3960724c-0.59854126 -1.0960846 -1.0222168 -2.5447845 -1.2710266 -4.3461c-0.1574707 -1.1400452 -0.26513672 -2.431549 -0.322937 -3.8745117l22.081604 0c-0.04034424 -4.1719055 -0.42367554 -7.8085175 -1.1499634 -10.909821c-0.719574 -3.1098175 -1.7922058 -5.7098236 -3.2178955 -7.8000183c-1.4257202 -2.0901947 -3.2347107 -3.6578522 -5.427063 -4.702957c-2.1923523 -1.0450897 -4.794922 -1.5676422 -7.8077087 -1.5676422z" fill-rule="evenodd"/><path fill="#eeeeee" d="m408.81595 138.15393c-1.9367981 0 -3.7962341 0.5225525 -5.578369 1.5676422c-1.7753906 1.045105 -3.3355713 2.4555664 -4.6805725 4.2313843c-0.8626404 1.1446686 -1.6107178 2.3970184 -2.2442322 3.7570343l0 0l-0.69122314 -8.689392l-15.7465515 0l0 6.971573l0.4942932 0.1529541c0.49765015 0.15293884 0.90112305 0.31011963 1.2104797 0.47155762c0.3093567 0.1529541 0.53463745 0.33563232 0.6758728 0.5480499c0.14794922 0.20391846 0.22192383 0.5437927 0.22192383 1.0196075l0 23.565735c0 0.9431305 -0.10424805 1.6738586 -0.31271362 2.192154c-0.20175171 0.51831055 -0.48083496 0.883667 -0.83724976 1.0960846c-0.34970093 0.2124176 -0.7935486 0.31863403 -1.331543 0.31863403l-0.12106323 0l0 6.181381l19.216644 0l0 -6.181381l-0.25219727 0c-0.24880981 0 -0.51782227 -0.012756348 -0.80700684 -0.038238525c-0.28915405 -0.033981323 -0.5480652 -0.10195923 -0.7767334 -0.20391846c-0.22192383 -0.10197449 -0.33288574 -0.20393372 -0.33288574 -0.30589294l0 -21.102707l0 0c0.24963379 -0.49343872 0.4951172 -0.9490814 0.73638916 -1.3669434c0.7868347 -1.3594818 1.5736389 -2.4045868 2.3604736 -3.1352997c0.7868347 -0.7307129 1.570282 -1.0960846 2.3503723 -1.0960846c0.6187134 0 1.1029053 0.15719604 1.4526062 0.47157288c0.3564148 0.3058777 0.6153259 0.7349701 0.7767334 1.287262c0.16812134 0.5437927 0.25219727 1.2362671 0.25219727 2.0774536l0 22.775528c0 0.16143799 -0.10424805 0.2931366 -0.31271362 0.39511108c-0.20175171 0.10195923 -0.46066284 0.16993713 -0.7767334 0.20391846c-0.3093567 0.025482178 -0.60861206 0.038238525 -0.89779663 0.038238525l-0.12106323 0l0 6.181381l19.156128 0l0 -6.181381l-0.19168091 0c-0.49090576 0 -0.9145813 -0.10621643 -1.2709961 -0.31863403c-0.34970093 -0.2124176 -0.6187134 -0.57777405 -0.80700684 -1.0960846c-0.18157959 -0.5182953 -0.27236938 -1.2490234 -0.27236938 -2.192154l0 -20.124557c0 -2.922882 -0.41357422 -5.3741913 -1.2407532 -7.3539276c-0.82717896 -1.9882507 -2.027588 -3.5049133 -3.6012268 -4.5500183c-1.566925 -1.0450897 -3.4667358 -1.5676422 -5.6994324 -1.5676422z" fill-rule="evenodd"/><path fill="#eeeeee" d="m428.46173 127.11665l0 8.220596c0 1.1980438 -0.18493652 2.0859528 -0.5548096 2.663742c-0.36987305 0.57777405 -0.8776245 0.9601288 -1.5232239 1.147049c-0.638855 0.17843628 -1.3920593 0.26765442 -2.2595825 0.26765442l-0.37322998 0l0 6.958832l4.277069 0l0 22.316711c0 3.5006561 0.59854126 6.2578583 1.7955627 8.271591c1.2037964 2.0052338 2.8581238 3.4156952 4.963043 4.2313843c2.1049194 0.80718994 4.5628967 1.2107849 7.3739624 1.2107849c1.3651733 0 2.6260986 -0.080718994 3.7827759 -0.24215698c1.1567078 -0.15293884 2.1688232 -0.3483734 3.0363464 -0.5862732c0.8675232 -0.23791504 1.5299377 -0.43333435 1.9872437 -0.58628845l0 -7.9147186c-0.24884033 0 -0.7565613 0.09347534 -1.5232239 0.2803955c-0.7666321 0.17843628 -1.6039124 0.26765442 -2.5117798 0.26765442c-0.94821167 0 -1.7417603 -0.1529541 -2.3806458 -0.4588318c-0.638855 -0.31437683 -1.1365051 -0.90065 -1.4929504 -1.7588196c-0.34970093 -0.8666687 -0.52453613 -2.1072083 -0.52453613 -3.7215881l0 -21.309845l8.735748 0l0 -7.3539276l-8.735748 0l0 -11.903946z" fill-rule="evenodd"/><path fill="#eeeeee" d="m463.8526 119.99213c-2.394104 0 -4.2636414 0.6669922 -5.6086426 2.0009842c-1.3450012 1.3254929 -2.0174866 3.2669983 -2.0174866 5.824524c0 2.557518 0.67248535 4.503273 2.0174866 5.8372574c1.3450012 1.3339996 3.2145386 2.0009918 5.6086426 2.0009918c2.441162 0 4.320801 -0.6669922 5.6388855 -2.0009918c1.3248291 -1.3339844 1.9872437 -3.2797394 1.9872437 -5.8372574c0 -2.5575256 -0.66241455 -4.499031 -1.9872437 -5.824524c-1.3180847 -1.333992 -3.1977234 -2.0009842 -5.6388855 -2.0009842zm-9.542755 19.028473l0 6.971573l0.4942932 0.1529541c0.74645996 0.20391846 1.2844543 0.4375763 1.6139832 0.7009735c0.3295288 0.26339722 0.4942932 0.7094879 0.4942932 1.3382416l0 23.565735c0 1.4104614 -0.2185669 2.366333 -0.6557007 2.8676453c-0.4303894 0.4928131 -1.0390015 0.7392273 -1.8258057 0.7392273l-0.12106323 0l0 6.181381l19.65039 0l0 -6.181381l-0.13113403 0c-0.7397461 0 -1.3382568 -0.24641418 -1.7955627 -0.7392273c-0.45059204 -0.50131226 -0.6758728 -1.4571838 -0.6758728 -2.8676453l0 -32.729477z" fill-rule="evenodd"/><path fill="#eeeeee" d="m494.03995 138.00099c-3.2212524 0 -6.0726624 0.48431396 -8.554169 1.4529419c-2.4815369 0.9601288 -4.425049 2.4980469 -5.8305664 4.6137238c-1.4055176 2.1156921 -2.1082764 4.923874 -2.1082764 8.42453c0 2.3960876 0.3395996 4.3928223 1.0188293 5.990219c0.6859436 1.5888824 1.6072693 2.8549042 2.763977 3.7980347c1.1566772 0.9346466 2.4277039 1.6908569 3.8130493 2.268631c1.3853455 0.56929016 2.7807922 1.062088 4.18631 1.4784393c0.9885559 0.31437683 1.9266968 0.59051514 2.814392 0.8284302c0.8876953 0.23791504 1.6812439 0.5395508 2.3806458 0.9049072c0.7061157 0.36535645 1.2542114 0.82418823 1.6442566 1.3764801c0.39678955 0.54377747 0.5951538 1.2830048 0.5951538 2.2176514c0 0.9941101 -0.16473389 1.8055573 -0.4942627 2.434311c-0.3295288 0.6202545 -0.8473511 1.062088 -1.5534668 1.3255005c-0.69940186 0.26339722 -1.6274719 0.39509583 -2.7841492 0.39509583c-1.1163635 0 -2.1284485 -0.07647705 -3.0363464 -0.2294159c-0.7765503 -0.13809204 -1.4793091 -0.32279968 -2.1082764 -0.5541382l0 0l0 -6.188034l-9.6032715 0l0 10.4127655c0.5783386 0.36535645 1.5265808 0.8369293 2.8446655 1.4147186c1.3248291 0.5692749 2.9892578 1.062088 4.9933167 1.4784241c2.0040283 0.4248352 4.2434387 0.6372528 6.718231 0.6372528c4.09552 0 7.494995 -0.5352936 10.198456 -1.6058807c2.7101746 -1.0705872 4.714203 -2.752945 6.0121155 -5.0470734c1.304657 -2.3026123 1.9569702 -5.3062134 1.9569702 -9.010803c0 -2.2941132 -0.37322998 -4.222885 -1.11969 -5.7862854c-0.7464905 -1.5718994 -1.7384033 -2.8549042 -2.97583 -3.8490143c-1.2373962 -0.99412537 -2.5891113 -1.7885742 -4.0551453 -2.3833466c-1.4660339 -0.6032715 -2.921997 -1.1385651 -4.3678894 -1.6058807c-1.116333 -0.3653717 -2.1419067 -0.67974854 -3.0766602 -0.94314575c-0.92807007 -0.26339722 -1.7451477 -0.54803467 -2.4512634 -0.85391235c-0.69940186 -0.3143921 -1.2340393 -0.71798706 -1.6039124 -1.2108002c-0.36987305 -0.501297 -0.5548096 -1.1682892 -0.5548096 -2.0009766c0 -1.206543 0.35980225 -2.0434723 1.0793762 -2.510788c0.72628784 -0.46733093 1.83255 -0.70098877 3.318756 -0.70098877c0.9482422 0 1.7922058 0.06373596 2.531952 0.19117737c0.62677 0.10700989 1.2084656 0.2529602 1.7451477 0.4378357l0 0l0 4.9278717l9.421692 0l0 -9.393158c-0.3765869 -0.26341248 -1.1432495 -0.64151 -2.2999268 -1.1343231c-1.1567078 -0.50131226 -2.6866455 -0.9601288 -4.589813 -1.3764648c-1.8964539 -0.41635132 -4.18631 -0.6245117 -6.869568 -0.6245117z" fill-rule="evenodd"/><path fill="#eeeeee" d="m516.46967 127.11665l0 8.220596c0 1.1980438 -0.18493652 2.0859528 -0.5548096 2.663742c-0.36987305 0.57777405 -0.8776245 0.9601288 -1.5232544 1.147049c-0.638855 0.17843628 -1.3920288 0.26765442 -2.2595825 0.26765442l-0.37322998 0l0 6.958832l4.2770996 0l0 22.316711c0 3.5006561 0.59851074 6.2578583 1.7955322 8.271591c1.2037964 2.0052338 2.8581543 3.4156952 4.9630737 4.2313843c2.1049194 0.80718994 4.562866 1.2107849 7.3739014 1.2107849c1.3651733 0 2.6261597 -0.080718994 3.782837 -0.24215698c1.1566772 -0.15293884 2.1688232 -0.3483734 3.036316 -0.5862732c0.8675537 -0.23791504 1.5299683 -0.43333435 1.9872437 -0.58628845l0 -7.9147186c-0.24884033 0 -0.7565918 0.09347534 -1.5231934 0.2803955c-0.7666626 0.17843628 -1.6039429 0.26765442 -2.5117798 0.26765442c-0.9482422 0 -1.7417603 -0.1529541 -2.3806763 -0.4588318c-0.638855 -0.31437683 -1.1365356 -0.90065 -1.4929199 -1.7588196c-0.34973145 -0.8666687 -0.52453613 -2.1072083 -0.52453613 -3.7215881l0 -21.309845l8.735718 0l0 -7.3539276l-8.735718 0l0 -11.903946z" fill-rule="evenodd"/><path fill="#eeeeee" d="m547.0245 127.11665l0 8.220596c0 1.1980438 -0.18493652 2.0859528 -0.5548096 2.663742c-0.36987305 0.57777405 -0.8775635 0.9601288 -1.5231934 1.147049c-0.638855 0.17843628 -1.3920898 0.26765442 -2.2595825 0.26765442l-0.37322998 0l0 6.958832l4.2770996 0l0 22.316711c0 3.5006561 0.59851074 6.2578583 1.7955322 8.271591c1.2037964 2.0052338 2.8581543 3.4156952 4.9630737 4.2313843c2.1049194 0.80718994 4.562866 1.2107849 7.3739014 1.2107849c1.3651733 0 2.6260986 -0.080718994 3.782837 -0.24215698c1.1566772 -0.15293884 2.1687622 -0.3483734 3.036316 -0.5862732c0.8674927 -0.23791504 1.5299072 -0.43333435 1.9872437 -0.58628845l0 -7.9147186c-0.24884033 0 -0.7565918 0.09347534 -1.5232544 0.2803955c-0.76660156 0.17843628 -1.6038818 0.26765442 -2.5117798 0.26765442c-0.94818115 0 -1.7417603 -0.1529541 -2.3806152 -0.4588318c-0.638855 -0.31437683 -1.1365356 -0.90065 -1.4929199 -1.7588196c-0.34973145 -0.8666687 -0.52459717 -2.1072083 -0.52459717 -3.7215881l0 -21.309845l8.735779 0l0 -7.3539276l-8.735779 0l0 -11.903946z" fill-rule="evenodd"/><path fill="#eeeeee" d="m591.8398 145.90297c1.2374268 0 2.2058105 0.45881653 2.9052124 1.3764648c0.7061157 0.9176483 1.2037964 2.4343262 1.4929199 4.5500183c0.28918457 2.1071777 0.43377686 4.9365997 0.43377686 8.488251c0 3.5516357 -0.14459229 6.398041 -0.43377686 8.53923c-0.28912354 2.1411743 -0.7868042 3.6960754 -1.4929199 4.6647186c-0.69940186 0.9601288 -1.6677856 1.4401855 -2.9052124 1.4401855c-1.2373657 0 -2.1990356 -0.48005676 -2.8850098 -1.4401855c-0.6791992 -0.9686432 -1.1633911 -2.5235443 -1.4525757 -4.6647186c-0.28918457 -2.1411896 -0.43377686 -4.9875946 -0.43377686 -8.53923c0 -3.551651 0.14459229 -6.381073 0.43377686 -8.488251c0.28918457 -2.1156921 0.78344727 -3.63237 1.4828491 -4.5500183c0.7061157 -0.9176483 1.6577148 -1.3764648 2.8547363 -1.3764648zm0 -7.7490387c-3.140564 0 -5.9213257 0.50979614 -8.342346 1.529419c-2.4142456 1.0196075 -4.458618 2.4937897 -6.1331787 4.4225464c-1.6744995 1.928772 -2.9454956 4.2653656 -3.8130493 7.0098267c-0.8674927 2.7444458 -1.3012695 5.837265 -1.3012695 9.278442c0 4.4947815 0.76330566 8.399033 2.289856 11.712769c1.5332642 3.313736 3.7559204 5.8712616 6.6677856 7.6725616c2.9119263 1.8013153 6.4559937 2.7019653 10.632202 2.7019653c4.216614 0 7.7808228 -0.90065 10.692749 -2.7019653c2.9119263 -1.8013 5.1210938 -4.3588257 6.6274414 -7.6725616c1.5064087 -3.313736 2.2596436 -7.217987 2.2596436 -11.712769c0 -3.4411774 -0.42370605 -6.5169983 -1.2710571 -9.227463c-0.8473511 -2.7189636 -2.1082764 -5.0555725 -3.7827759 -7.0098267c-1.6677856 -1.962738 -3.72229 -3.4539185 -6.163452 -4.473526c-2.4344482 -1.0196228 -5.221985 -1.529419 -8.362549 -1.529419z" fill-rule="evenodd"/><path fill="#eeeeee" d="m634.72815 145.90297c1.2374268 0 2.2058105 0.45881653 2.9052124 1.3764648c0.7061157 0.9176483 1.2037354 2.4343262 1.4929199 4.5500183c0.28918457 2.1071777 0.43377686 4.9365997 0.43377686 8.488251c0 3.5516357 -0.14459229 6.398041 -0.43377686 8.53923c-0.28918457 2.1411743 -0.7868042 3.6960754 -1.4929199 4.6647186c-0.69940186 0.9601288 -1.6677856 1.4401855 -2.9052124 1.4401855c-1.2374268 0 -2.1990967 -0.48005676 -2.8850098 -1.4401855c-0.6791992 -0.9686432 -1.1634521 -2.5235443 -1.4525757 -4.6647186c-0.28918457 -2.1411896 -0.43377686 -4.9875946 -0.43377686 -8.53923c0 -3.551651 0.14459229 -6.381073 0.43377686 -8.488251c0.28912354 -2.1156921 0.78344727 -3.63237 1.4828491 -4.5500183c0.7061157 -0.9176483 1.6577148 -1.3764648 2.8547363 -1.3764648zm0 -7.7490387c-3.140564 0 -5.9213257 0.50979614 -8.342346 1.529419c-2.4142456 1.0196075 -4.458679 2.4937897 -6.1331787 4.4225464c-1.6744995 1.928772 -2.9455566 4.2653656 -3.8130493 7.0098267c-0.8675537 2.7444458 -1.3012695 5.837265 -1.3012695 9.278442c0 4.4947815 0.7632446 8.399033 2.289856 11.712769c1.5332642 3.313736 3.7558594 5.8712616 6.6677856 7.6725616c2.9119263 1.8013153 6.4559937 2.7019653 10.632202 2.7019653c4.2165527 0 7.7808228 -0.90065 10.692749 -2.7019653c2.9118652 -1.8013 5.1210327 -4.3588257 6.6274414 -7.6725616c1.5064087 -3.313736 2.2595825 -7.217987 2.2595825 -11.712769c0 -3.4411774 -0.42364502 -6.5169983 -1.2709961 -9.227463c-0.8473511 -2.7189636 -2.1082764 -5.0555725 -3.782837 -7.0098267c-1.6677856 -1.962738 -3.722229 -3.4539185 -6.163452 -4.473526c-2.4343872 -1.0196228 -5.221924 -1.529419 -8.362488 -1.529419z" fill-rule="evenodd"/><path fill="#eeeeee" d="m657.7817 122.18429l0 6.7294235l0.4942627 0.16569519c0.4572754 0.15293884 0.850708 0.31011963 1.1802368 0.47155762c0.3295288 0.15293884 0.5648804 0.3483734 0.7061157 0.5862732c0.14794922 0.2294159 0.22192383 0.55229187 0.22192383 0.9686432l0 40.644196c0 1.4104614 -0.2185669 2.366333 -0.6557007 2.8676453c-0.4303589 0.4928131 -1.0390015 0.7392273 -1.8258057 0.7392273l-0.121032715 0l0 6.181381l19.65039 0l0 -6.181381l-0.13116455 0c-0.7397461 0 -1.3382568 -0.24641418 -1.7955933 -0.7392273c-0.45056152 -0.50131226 -0.6758423 -1.4571838 -0.6758423 -2.8676453l0 -49.56579z" fill-rule="evenodd"/><path fill="#eeeeee" d="m698.13153 138.00099c-3.2212524 0 -6.072632 0.48431396 -8.554199 1.4529419c-2.4815063 0.9601288 -4.424988 2.4980469 -5.8305054 4.6137238c-1.4055786 2.1156921 -2.1082764 4.923874 -2.1082764 8.42453c0 2.3960876 0.3395996 4.3928223 1.0187988 5.990219c0.6859741 1.5888824 1.6072998 2.8549042 2.763977 3.7980347c1.1566772 0.9346466 2.4277344 1.6908569 3.8130493 2.268631c1.385376 0.56929016 2.7808228 1.062088 4.1863403 1.4784393c0.9885254 0.31437683 1.9266968 0.59051514 2.814392 0.8284302c0.8876953 0.23791504 1.6812134 0.5395508 2.3806152 0.9049072c0.7061157 0.36535645 1.2542114 0.82418823 1.6442871 1.3764801c0.39678955 0.54377747 0.5951538 1.2830048 0.5951538 2.2176514c0 0.9941101 -0.16479492 1.8055573 -0.49432373 2.434311c-0.32946777 0.6202545 -0.84729004 1.062088 -1.5534668 1.3255005c-0.69940186 0.26339722 -1.6274414 0.39509583 -2.7841187 0.39509583c-1.116333 0 -2.128479 -0.07647705 -3.036316 -0.2294159c-0.7765503 -0.13809204 -1.4793091 -0.32279968 -2.1082764 -0.5541382l0 0l0 -6.188034l-9.6032715 0l0 10.4127655c0.5783081 0.36535645 1.5265503 0.8369293 2.8446655 1.4147186c1.3248291 0.5692749 2.9892578 1.062088 4.993286 1.4784241c2.0040283 0.4248352 4.243469 0.6372528 6.7182617 0.6372528c4.09552 0 7.494995 -0.5352936 10.198425 -1.6058807c2.710144 -1.0705872 4.7141724 -2.752945 6.012146 -5.0470734c1.3046265 -2.3026123 1.9569702 -5.3062134 1.9569702 -9.010803c0 -2.2941132 -0.37322998 -4.222885 -1.119751 -5.7862854c-0.74645996 -1.5718994 -1.7384033 -2.8549042 -2.975769 -3.8490143c-1.2374268 -0.99412537 -2.5891113 -1.7885742 -4.055176 -2.3833466c-1.4660645 -0.6032715 -2.921997 -1.1385651 -4.367859 -1.6058807c-1.116333 -0.3653717 -2.1419067 -0.67974854 -3.0767212 -0.94314575c-0.92803955 -0.26339722 -1.7451172 -0.54803467 -2.451233 -0.85391235c-0.69940186 -0.3143921 -1.2340088 -0.71798706 -1.6038818 -1.2108002c-0.36987305 -0.501297 -0.5548096 -1.1682892 -0.5548096 -2.0009766c0 -1.206543 0.3597412 -2.0434723 1.0793457 -2.510788c0.72631836 -0.46733093 1.8325195 -0.70098877 3.3187866 -0.70098877c0.94818115 0 1.7921753 0.06373596 2.5319214 0.19117737c0.62677 0.10700989 1.2084961 0.2529602 1.7451782 0.4378357l0 0l0 4.9278717l9.421692 0l0 -9.393158c-0.37664795 -0.26341248 -1.1432495 -0.64151 -2.2999878 -1.1343231c-1.1566772 -0.50131226 -2.6865845 -0.9601288 -4.5897827 -1.3764648c-1.8964233 -0.41635132 -4.1862793 -0.6245117 -6.869568 -0.6245117z" fill-rule="evenodd"/><path stroke="#595959" stroke-width="1.0" stroke-linejoin="round" stroke-linecap="butt" d="m260.32318 138.00099c-3.221283 0 -6.0726624 0.48431396 -8.554169 1.4529419c-2.4815216 0.9601288 -4.4250336 2.4980469 -5.8305664 4.6137238c-1.4055328 2.1156921 -2.1082764 4.923874 -2.1082764 8.42453c0 2.3960876 0.3395996 4.3928223 1.0188293 5.990219c0.6859436 1.5888824 1.6072845 2.8549042 2.7639618 3.7980347c1.1566925 0.9346466 2.427719 1.6908569 3.8130646 2.268631c1.3853607 0.56929016 2.7808075 1.062088 4.18631 1.4784393c0.9885559 0.31437683 1.9266968 0.59051514 2.814392 0.8284302c0.8876953 0.23791504 1.6812439 0.5395508 2.3806458 0.9049072c0.70614624 0.36535645 1.2542114 0.82418823 1.6442566 1.3764801c0.39678955 0.54377747 0.5951843 1.2830048 0.5951843 2.2176514c0 0.9941101 -0.16479492 1.8055573 -0.4942932 2.434311c-0.3295288 0.6202545 -0.8473511 1.062088 -1.5534668 1.3255005c-0.69940186 0.26339722 -1.6274719 0.39509583 -2.7841492 0.39509583c-1.116333 0 -2.1284485 -0.07647705 -3.0363312 -0.2294159c-0.77656555 -0.13809204 -1.4793091 -0.32279968 -2.1082764 -0.5541382l0 0l0 -6.188034l-9.603287 0l0 10.4127655c0.57836914 0.36535645 1.5265808 0.8369293 2.8446808 1.4147186c1.3248138 0.5692749 2.9892578 1.062088 4.993286 1.4784241c2.0040436 0.4248352 4.243469 0.6372528 6.718277 0.6372528c4.0954895 0 7.4949646 -0.5352936 10.198425 -1.6058807c2.710144 -1.0705872 4.714203 -2.752945 6.0121155 -5.0470734c1.304657 -2.3026123 1.9569702 -5.3062134 1.9569702 -9.010803c0 -2.2941132 -0.37322998 -4.222885 -1.11969 -5.7862854c-0.7464905 -1.5718994 -1.7384338 -2.8549042 -2.9757996 -3.8490143c-1.2373962 -0.99412537 -2.5891113 -1.7885742 -4.055176 -2.3833466c-1.4660645 -0.6032715 -2.9220276 -1.1385651 -4.3678894 -1.6058807c-1.116333 -0.3653717 -2.1418762 -0.67974854 -3.0766602 -0.94314575c-0.92803955 -0.26339722 -1.7451477 -0.54803467 -2.4512634 -0.85391235c-0.69940186 -0.3143921 -1.2340393 -0.71798706 -1.6039124 -1.2108002c-0.36987305 -0.501297 -0.5548096 -1.1682892 -0.5548096 -2.0009766c0 -1.206543 0.35977173 -2.0434723 1.0793762 -2.510788c0.72628784 -0.46733093 1.83255 -0.70098877 3.318756 -0.70098877c0.9482422 0 1.7922058 0.06373596 2.531952 0.19117737c0.62677 0.10700989 1.2084656 0.2529602 1.7451477 0.4378357l0 0l0 4.9278717l9.421692 0l0 -9.393158c-0.3765869 -0.26341248 -1.1432495 -0.64151 -2.2999268 -1.1343231c-1.1567078 -0.50131226 -2.686615 -0.9601288 -4.589813 -1.3764648c-1.8964539 -0.41635132 -4.18631 -0.6245117 -6.869568 -0.6245117z" fill-rule="evenodd"/><path stroke="#595959" stroke-width="1.0" stroke-linejoin="round" stroke-linecap="butt" d="m299.49524 138.2304c-4.1762085 0 -7.743805 0.8369293 -10.70282 2.510788c-2.95224 1.6738586 -5.2253113 4.142166 -6.8191223 7.4049225c-1.5870972 3.2627563 -2.3806458 7.294464 -2.3806458 12.095123c0 4.9026184 0.8372803 9.002304 2.5117798 12.299042c1.67453 3.2882385 3.9778442 5.756546 6.909912 7.4049225c2.9320984 1.6398621 6.3215027 2.4598083 10.168182 2.4598083c2.6025696 0 4.8722534 -0.48431396 6.8090515 -1.4529419c1.943512 -0.9686279 3.5877686 -2.3408508 4.93277 -4.116684c1.3450012 -1.7758179 2.4310913 -3.8617706 3.2582397 -6.2578583l-4.710846 -3.6068573c-0.5379944 1.2575073 -1.1701355 2.4598083 -1.8964233 3.6068573c-0.7196045 1.1470642 -1.5568542 2.0732117 -2.5117798 2.7784424c-0.9482422 0.7052307 -2.020874 1.0578461 -3.217926 1.0578461c-1.3248291 0 -2.451233 -0.25915527 -3.379303 -0.77745056c-0.92803955 -0.52679443 -1.6913147 -1.3509827 -2.289856 -2.4725494c-0.59851074 -1.121582 -1.0423584 -2.5830078 -1.331543 -4.384323c-0.28915405 -1.8013153 -0.43374634 -3.9807281 -0.43374634 -6.538254c0 -3.3392181 0.19503784 -6.066681 0.5850525 -8.182373c0.39004517 -2.1156921 1.0188599 -3.6705933 1.886383 -4.6647186c0.87423706 -0.9941101 2.0107422 -1.4911652 3.409546 -1.4911652c0.9146118 0 1.6476135 0.16992188 2.1990662 0.50979614c0.053894043 0.032821655 0.10769653 0.06674194 0.16140747 0.10177612l0 0l0 8.794327l10.470795 0l0 -13.701019c-0.5379944 -0.4248352 -1.4156189 -0.8963928 -2.6328125 -1.4147034c-1.2172241 -0.5182953 -2.7471619 -0.97288513 -4.589813 -1.3637238c-1.835907 -0.39935303 -3.9710999 -0.59902954 -6.405548 -0.59902954z" fill-rule="evenodd"/><path stroke="#595959" stroke-width="1.0" stroke-linejoin="round" stroke-linecap="butt" d="m326.88254 119.99213c-2.3940735 0 -4.263611 0.6669922 -5.608612 2.0009842c-1.3450012 1.3254929 -2.017517 3.2669983 -2.017517 5.824524c0 2.557518 0.67251587 4.503273 2.017517 5.8372574c1.3449707 1.3339996 3.2145386 2.0009918 5.608612 2.0009918c2.4411926 0 4.320801 -0.6669922 5.638916 -2.0009918c1.3247986 -1.3339844 1.9872131 -3.2797394 1.9872131 -5.8372574c0 -2.5575256 -0.66241455 -4.499031 -1.9872131 -5.824524c-1.3181152 -1.333992 -3.1977234 -2.0009842 -5.638916 -2.0009842zm-9.542725 19.028473l0 6.971573l0.4942627 0.1529541c0.7464905 0.20391846 1.2844849 0.4375763 1.6140137 0.7009735c0.3295288 0.26339722 0.4942932 0.7094879 0.4942932 1.3382416l0 23.565735c0 1.4104614 -0.2185669 2.366333 -0.6557007 2.8676453c-0.4303894 0.4928131 -1.0390015 0.7392273 -1.8258362 0.7392273l-0.121032715 0l0 6.181381l19.65039 0l0 -6.181381l-0.13113403 0c-0.7397461 0 -1.3382874 -0.24641418 -1.7955933 -0.7392273c-0.45056152 -0.50131226 -0.6758423 -1.4571838 -0.6758423 -2.8676453l0 -32.729477z" fill-rule="evenodd"/><path stroke="#595959" stroke-width="1.0" stroke-linejoin="round" stroke-linecap="butt" d="m359.1782 145.44414c0.7397461 0 1.3887024 0.18267822 1.9468689 0.54803467c0.5581665 0.3653717 0.99194336 1.0323639 1.3013 2.0009918c0.3093567 0.9601288 0.54470825 2.353592 0.7061157 4.1804047c0.11819458 1.2842102 0.20645142 2.8518677 0.26483154 4.702942l-9.010834 0c0.045959473 -1.504364 0.12335205 -2.8213654 0.23217773 -3.9509888c0.18829346 -1.962738 0.48754883 -3.492157 0.8977661 -4.5882416c0.41696167 -1.0960846 0.9246826 -1.8522949 1.5232239 -2.268631c0.59851074 -0.41633606 1.3113708 -0.6245117 2.1385498 -0.6245117zm-0.31271362 -7.290207c-3.7592773 0 -7.0545044 0.92614746 -9.885742 2.7784271c-2.8312073 1.8522949 -5.0235596 4.452301 -6.5770264 7.8000183c-1.5467224 3.3392334 -2.3200989 7.277466 -2.3200989 11.814728c0 4.758194 0.77337646 8.768646 2.3200989 12.031403c1.5534668 3.2627563 3.8265076 5.7310486 6.819153 7.4049225c2.9993286 1.6653595 6.6072693 2.4980316 10.823853 2.4980316c2.7639465 0 5.147949 -0.37809753 7.152008 -1.1343079c2.0040588 -0.7562103 3.7088318 -1.9032745 5.1143494 -3.4411774c1.4055176 -1.5464172 2.5622253 -3.4411926 3.4700928 -5.684326l-4.952942 -4.0784454c-0.6187134 1.2575226 -1.3214722 2.3705902 -2.1082764 3.3392181c-0.7868347 0.96014404 -1.6980591 1.7036133 -2.7337036 2.2304077c-1.0289307 0.5182953 -2.286499 0.77745056 -3.7727356 0.77745056c-1.486206 0 -2.7471313 -0.24641418 -3.7828064 -0.7392273c-1.0356445 -0.50131226 -1.8527222 -1.300003 -2.451233 -2.3960724c-0.59854126 -1.0960846 -1.0222168 -2.5447845 -1.2710266 -4.3461c-0.1574707 -1.1400452 -0.26513672 -2.431549 -0.322937 -3.8745117l22.081604 0c-0.04034424 -4.1719055 -0.42367554 -7.8085175 -1.1499634 -10.909821c-0.719574 -3.1098175 -1.7922058 -5.7098236 -3.2178955 -7.8000183c-1.4257202 -2.0901947 -3.2347107 -3.6578522 -5.427063 -4.702957c-2.1923523 -1.0450897 -4.794922 -1.5676422 -7.8077087 -1.5676422z" fill-rule="evenodd"/><path stroke="#595959" stroke-width="1.0" stroke-linejoin="round" stroke-linecap="butt" d="m408.81595 138.15393c-1.9367981 0 -3.7962341 0.5225525 -5.578369 1.5676422c-1.7753906 1.045105 -3.3355713 2.4555664 -4.6805725 4.2313843c-0.8626404 1.1446686 -1.6107178 2.3970184 -2.2442322 3.7570343l0 0l-0.69122314 -8.689392l-15.7465515 0l0 6.971573l0.4942932 0.1529541c0.49765015 0.15293884 0.90112305 0.31011963 1.2104797 0.47155762c0.3093567 0.1529541 0.53463745 0.33563232 0.6758728 0.5480499c0.14794922 0.20391846 0.22192383 0.5437927 0.22192383 1.0196075l0 23.565735c0 0.9431305 -0.10424805 1.6738586 -0.31271362 2.192154c-0.20175171 0.51831055 -0.48083496 0.883667 -0.83724976 1.0960846c-0.34970093 0.2124176 -0.7935486 0.31863403 -1.331543 0.31863403l-0.12106323 0l0 6.181381l19.216644 0l0 -6.181381l-0.25219727 0c-0.24880981 0 -0.51782227 -0.012756348 -0.80700684 -0.038238525c-0.28915405 -0.033981323 -0.5480652 -0.10195923 -0.7767334 -0.20391846c-0.22192383 -0.10197449 -0.33288574 -0.20393372 -0.33288574 -0.30589294l0 -21.102707l0 0c0.24963379 -0.49343872 0.4951172 -0.9490814 0.73638916 -1.3669434c0.7868347 -1.3594818 1.5736389 -2.4045868 2.3604736 -3.1352997c0.7868347 -0.7307129 1.570282 -1.0960846 2.3503723 -1.0960846c0.6187134 0 1.1029053 0.15719604 1.4526062 0.47157288c0.3564148 0.3058777 0.6153259 0.7349701 0.7767334 1.287262c0.16812134 0.5437927 0.25219727 1.2362671 0.25219727 2.0774536l0 22.775528c0 0.16143799 -0.10424805 0.2931366 -0.31271362 0.39511108c-0.20175171 0.10195923 -0.46066284 0.16993713 -0.7767334 0.20391846c-0.3093567 0.025482178 -0.60861206 0.038238525 -0.89779663 0.038238525l-0.12106323 0l0 6.181381l19.156128 0l0 -6.181381l-0.19168091 0c-0.49090576 0 -0.9145813 -0.10621643 -1.2709961 -0.31863403c-0.34970093 -0.2124176 -0.6187134 -0.57777405 -0.80700684 -1.0960846c-0.18157959 -0.5182953 -0.27236938 -1.2490234 -0.27236938 -2.192154l0 -20.124557c0 -2.922882 -0.41357422 -5.3741913 -1.2407532 -7.3539276c-0.82717896 -1.9882507 -2.027588 -3.5049133 -3.6012268 -4.5500183c-1.566925 -1.0450897 -3.4667358 -1.5676422 -5.6994324 -1.5676422z" fill-rule="evenodd"/><path stroke="#595959" stroke-width="1.0" stroke-linejoin="round" stroke-linecap="butt" d="m428.46173 127.11665l0 8.220596c0 1.1980438 -0.18493652 2.0859528 -0.5548096 2.663742c-0.36987305 0.57777405 -0.8776245 0.9601288 -1.5232239 1.147049c-0.638855 0.17843628 -1.3920593 0.26765442 -2.2595825 0.26765442l-0.37322998 0l0 6.958832l4.277069 0l0 22.316711c0 3.5006561 0.59854126 6.2578583 1.7955627 8.271591c1.2037964 2.0052338 2.8581238 3.4156952 4.963043 4.2313843c2.1049194 0.80718994 4.5628967 1.2107849 7.3739624 1.2107849c1.3651733 0 2.6260986 -0.080718994 3.7827759 -0.24215698c1.1567078 -0.15293884 2.1688232 -0.3483734 3.0363464 -0.5862732c0.8675232 -0.23791504 1.5299377 -0.43333435 1.9872437 -0.58628845l0 -7.9147186c-0.24884033 0 -0.7565613 0.09347534 -1.5232239 0.2803955c-0.7666321 0.17843628 -1.6039124 0.26765442 -2.5117798 0.26765442c-0.94821167 0 -1.7417603 -0.1529541 -2.3806458 -0.4588318c-0.638855 -0.31437683 -1.1365051 -0.90065 -1.4929504 -1.7588196c-0.34970093 -0.8666687 -0.52453613 -2.1072083 -0.52453613 -3.7215881l0 -21.309845l8.735748 0l0 -7.3539276l-8.735748 0l0 -11.903946z" fill-rule="evenodd"/><path stroke="#595959" stroke-width="1.0" stroke-linejoin="round" stroke-linecap="butt" d="m463.8526 119.99213c-2.394104 0 -4.2636414 0.6669922 -5.6086426 2.0009842c-1.3450012 1.3254929 -2.0174866 3.2669983 -2.0174866 5.824524c0 2.557518 0.67248535 4.503273 2.0174866 5.8372574c1.3450012 1.3339996 3.2145386 2.0009918 5.6086426 2.0009918c2.441162 0 4.320801 -0.6669922 5.6388855 -2.0009918c1.3248291 -1.3339844 1.9872437 -3.2797394 1.9872437 -5.8372574c0 -2.5575256 -0.66241455 -4.499031 -1.9872437 -5.824524c-1.3180847 -1.333992 -3.1977234 -2.0009842 -5.6388855 -2.0009842zm-9.542755 19.028473l0 6.971573l0.4942932 0.1529541c0.74645996 0.20391846 1.2844543 0.4375763 1.6139832 0.7009735c0.3295288 0.26339722 0.4942932 0.7094879 0.4942932 1.3382416l0 23.565735c0 1.4104614 -0.2185669 2.366333 -0.6557007 2.8676453c-0.4303894 0.4928131 -1.0390015 0.7392273 -1.8258057 0.7392273l-0.12106323 0l0 6.181381l19.65039 0l0 -6.181381l-0.13113403 0c-0.7397461 0 -1.3382568 -0.24641418 -1.7955627 -0.7392273c-0.45059204 -0.50131226 -0.6758728 -1.4571838 -0.6758728 -2.8676453l0 -32.729477z" fill-rule="evenodd"/><path stroke="#595959" stroke-width="1.0" stroke-linejoin="round" stroke-linecap="butt" d="m494.03995 138.00099c-3.2212524 0 -6.0726624 0.48431396 -8.554169 1.4529419c-2.4815369 0.9601288 -4.425049 2.4980469 -5.8305664 4.6137238c-1.4055176 2.1156921 -2.1082764 4.923874 -2.1082764 8.42453c0 2.3960876 0.3395996 4.3928223 1.0188293 5.990219c0.6859436 1.5888824 1.6072693 2.8549042 2.763977 3.7980347c1.1566772 0.9346466 2.4277039 1.6908569 3.8130493 2.268631c1.3853455 0.56929016 2.7807922 1.062088 4.18631 1.4784393c0.9885559 0.31437683 1.9266968 0.59051514 2.814392 0.8284302c0.8876953 0.23791504 1.6812439 0.5395508 2.3806458 0.9049072c0.7061157 0.36535645 1.2542114 0.82418823 1.6442566 1.3764801c0.39678955 0.54377747 0.5951538 1.2830048 0.5951538 2.2176514c0 0.9941101 -0.16473389 1.8055573 -0.4942627 2.434311c-0.3295288 0.6202545 -0.8473511 1.062088 -1.5534668 1.3255005c-0.69940186 0.26339722 -1.6274719 0.39509583 -2.7841492 0.39509583c-1.1163635 0 -2.1284485 -0.07647705 -3.0363464 -0.2294159c-0.7765503 -0.13809204 -1.4793091 -0.32279968 -2.1082764 -0.5541382l0 0l0 -6.188034l-9.6032715 0l0 10.4127655c0.5783386 0.36535645 1.5265808 0.8369293 2.8446655 1.4147186c1.3248291 0.5692749 2.9892578 1.062088 4.9933167 1.4784241c2.0040283 0.4248352 4.2434387 0.6372528 6.718231 0.6372528c4.09552 0 7.494995 -0.5352936 10.198456 -1.6058807c2.7101746 -1.0705872 4.714203 -2.752945 6.0121155 -5.0470734c1.304657 -2.3026123 1.9569702 -5.3062134 1.9569702 -9.010803c0 -2.2941132 -0.37322998 -4.222885 -1.11969 -5.7862854c-0.7464905 -1.5718994 -1.7384033 -2.8549042 -2.97583 -3.8490143c-1.2373962 -0.99412537 -2.5891113 -1.7885742 -4.0551453 -2.3833466c-1.4660339 -0.6032715 -2.921997 -1.1385651 -4.3678894 -1.6058807c-1.116333 -0.3653717 -2.1419067 -0.67974854 -3.0766602 -0.94314575c-0.92807007 -0.26339722 -1.7451477 -0.54803467 -2.4512634 -0.85391235c-0.69940186 -0.3143921 -1.2340393 -0.71798706 -1.6039124 -1.2108002c-0.36987305 -0.501297 -0.5548096 -1.1682892 -0.5548096 -2.0009766c0 -1.206543 0.35980225 -2.0434723 1.0793762 -2.510788c0.72628784 -0.46733093 1.83255 -0.70098877 3.318756 -0.70098877c0.9482422 0 1.7922058 0.06373596 2.531952 0.19117737c0.62677 0.10700989 1.2084656 0.2529602 1.7451477 0.4378357l0 0l0 4.9278717l9.421692 0l0 -9.393158c-0.3765869 -0.26341248 -1.1432495 -0.64151 -2.2999268 -1.1343231c-1.1567078 -0.50131226 -2.6866455 -0.9601288 -4.589813 -1.3764648c-1.8964539 -0.41635132 -4.18631 -0.6245117 -6.869568 -0.6245117z" fill-rule="evenodd"/><path stroke="#595959" stroke-width="1.0" stroke-linejoin="round" stroke-linecap="butt" d="m516.46967 127.11665l0 8.220596c0 1.1980438 -0.18493652 2.0859528 -0.5548096 2.663742c-0.36987305 0.57777405 -0.8776245 0.9601288 -1.5232544 1.147049c-0.638855 0.17843628 -1.3920288 0.26765442 -2.2595825 0.26765442l-0.37322998 0l0 6.958832l4.2770996 0l0 22.316711c0 3.5006561 0.59851074 6.2578583 1.7955322 8.271591c1.2037964 2.0052338 2.8581543 3.4156952 4.9630737 4.2313843c2.1049194 0.80718994 4.562866 1.2107849 7.3739014 1.2107849c1.3651733 0 2.6261597 -0.080718994 3.782837 -0.24215698c1.1566772 -0.15293884 2.1688232 -0.3483734 3.036316 -0.5862732c0.8675537 -0.23791504 1.5299683 -0.43333435 1.9872437 -0.58628845l0 -7.9147186c-0.24884033 0 -0.7565918 0.09347534 -1.5231934 0.2803955c-0.7666626 0.17843628 -1.6039429 0.26765442 -2.5117798 0.26765442c-0.9482422 0 -1.7417603 -0.1529541 -2.3806763 -0.4588318c-0.638855 -0.31437683 -1.1365356 -0.90065 -1.4929199 -1.7588196c-0.34973145 -0.8666687 -0.52453613 -2.1072083 -0.52453613 -3.7215881l0 -21.309845l8.735718 0l0 -7.3539276l-8.735718 0l0 -11.903946z" fill-rule="evenodd"/><path stroke="#595959" stroke-width="1.0" stroke-linejoin="round" stroke-linecap="butt" d="m547.0245 127.11665l0 8.220596c0 1.1980438 -0.18493652 2.0859528 -0.5548096 2.663742c-0.36987305 0.57777405 -0.8775635 0.9601288 -1.5231934 1.147049c-0.638855 0.17843628 -1.3920898 0.26765442 -2.2595825 0.26765442l-0.37322998 0l0 6.958832l4.2770996 0l0 22.316711c0 3.5006561 0.59851074 6.2578583 1.7955322 8.271591c1.2037964 2.0052338 2.8581543 3.4156952 4.9630737 4.2313843c2.1049194 0.80718994 4.562866 1.2107849 7.3739014 1.2107849c1.3651733 0 2.6260986 -0.080718994 3.782837 -0.24215698c1.1566772 -0.15293884 2.1687622 -0.3483734 3.036316 -0.5862732c0.8674927 -0.23791504 1.5299072 -0.43333435 1.9872437 -0.58628845l0 -7.9147186c-0.24884033 0 -0.7565918 0.09347534 -1.5232544 0.2803955c-0.76660156 0.17843628 -1.6038818 0.26765442 -2.5117798 0.26765442c-0.94818115 0 -1.7417603 -0.1529541 -2.3806152 -0.4588318c-0.638855 -0.31437683 -1.1365356 -0.90065 -1.4929199 -1.7588196c-0.34973145 -0.8666687 -0.52459717 -2.1072083 -0.52459717 -3.7215881l0 -21.309845l8.735779 0l0 -7.3539276l-8.735779 0l0 -11.903946z" fill-rule="evenodd"/><path stroke="#595959" stroke-width="1.0" stroke-linejoin="round" stroke-linecap="butt" d="m591.8398 145.90297c1.2374268 0 2.2058105 0.45881653 2.9052124 1.3764648c0.7061157 0.9176483 1.2037964 2.4343262 1.4929199 4.5500183c0.28918457 2.1071777 0.43377686 4.9365997 0.43377686 8.488251c0 3.5516357 -0.14459229 6.398041 -0.43377686 8.53923c-0.28912354 2.1411743 -0.7868042 3.6960754 -1.4929199 4.6647186c-0.69940186 0.9601288 -1.6677856 1.4401855 -2.9052124 1.4401855c-1.2373657 0 -2.1990356 -0.48005676 -2.8850098 -1.4401855c-0.6791992 -0.9686432 -1.1633911 -2.5235443 -1.4525757 -4.6647186c-0.28918457 -2.1411896 -0.43377686 -4.9875946 -0.43377686 -8.53923c0 -3.551651 0.14459229 -6.381073 0.43377686 -8.488251c0.28918457 -2.1156921 0.78344727 -3.63237 1.4828491 -4.5500183c0.7061157 -0.9176483 1.6577148 -1.3764648 2.8547363 -1.3764648zm0 -7.7490387c-3.140564 0 -5.9213257 0.50979614 -8.342346 1.529419c-2.4142456 1.0196075 -4.458618 2.4937897 -6.1331787 4.4225464c-1.6744995 1.928772 -2.9454956 4.2653656 -3.8130493 7.0098267c-0.8674927 2.7444458 -1.3012695 5.837265 -1.3012695 9.278442c0 4.4947815 0.76330566 8.399033 2.289856 11.712769c1.5332642 3.313736 3.7559204 5.8712616 6.6677856 7.6725616c2.9119263 1.8013153 6.4559937 2.7019653 10.632202 2.7019653c4.216614 0 7.7808228 -0.90065 10.692749 -2.7019653c2.9119263 -1.8013 5.1210938 -4.3588257 6.6274414 -7.6725616c1.5064087 -3.313736 2.2596436 -7.217987 2.2596436 -11.712769c0 -3.4411774 -0.42370605 -6.5169983 -1.2710571 -9.227463c-0.8473511 -2.7189636 -2.1082764 -5.0555725 -3.7827759 -7.0098267c-1.6677856 -1.962738 -3.72229 -3.4539185 -6.163452 -4.473526c-2.4344482 -1.0196228 -5.221985 -1.529419 -8.362549 -1.529419z" fill-rule="evenodd"/><path stroke="#595959" stroke-width="1.0" stroke-linejoin="round" stroke-linecap="butt" d="m634.72815 145.90297c1.2374268 0 2.2058105 0.45881653 2.9052124 1.3764648c0.7061157 0.9176483 1.2037354 2.4343262 1.4929199 4.5500183c0.28918457 2.1071777 0.43377686 4.9365997 0.43377686 8.488251c0 3.5516357 -0.14459229 6.398041 -0.43377686 8.53923c-0.28918457 2.1411743 -0.7868042 3.6960754 -1.4929199 4.6647186c-0.69940186 0.9601288 -1.6677856 1.4401855 -2.9052124 1.4401855c-1.2374268 0 -2.1990967 -0.48005676 -2.8850098 -1.4401855c-0.6791992 -0.9686432 -1.1634521 -2.5235443 -1.4525757 -4.6647186c-0.28918457 -2.1411896 -0.43377686 -4.9875946 -0.43377686 -8.53923c0 -3.551651 0.14459229 -6.381073 0.43377686 -8.488251c0.28912354 -2.1156921 0.78344727 -3.63237 1.4828491 -4.5500183c0.7061157 -0.9176483 1.6577148 -1.3764648 2.8547363 -1.3764648zm0 -7.7490387c-3.140564 0 -5.9213257 0.50979614 -8.342346 1.529419c-2.4142456 1.0196075 -4.458679 2.4937897 -6.1331787 4.4225464c-1.6744995 1.928772 -2.9455566 4.2653656 -3.8130493 7.0098267c-0.8675537 2.7444458 -1.3012695 5.837265 -1.3012695 9.278442c0 4.4947815 0.7632446 8.399033 2.289856 11.712769c1.5332642 3.313736 3.7558594 5.8712616 6.6677856 7.6725616c2.9119263 1.8013153 6.4559937 2.7019653 10.632202 2.7019653c4.2165527 0 7.7808228 -0.90065 10.692749 -2.7019653c2.9118652 -1.8013 5.1210327 -4.3588257 6.6274414 -7.6725616c1.5064087 -3.313736 2.2595825 -7.217987 2.2595825 -11.712769c0 -3.4411774 -0.42364502 -6.5169983 -1.2709961 -9.227463c-0.8473511 -2.7189636 -2.1082764 -5.0555725 -3.782837 -7.0098267c-1.6677856 -1.962738 -3.722229 -3.4539185 -6.163452 -4.473526c-2.4343872 -1.0196228 -5.221924 -1.529419 -8.362488 -1.529419z" fill-rule="evenodd"/><path stroke="#595959" stroke-width="1.0" stroke-linejoin="round" stroke-linecap="butt" d="m657.7817 122.18429l0 6.7294235l0.4942627 0.16569519c0.4572754 0.15293884 0.850708 0.31011963 1.1802368 0.47155762c0.3295288 0.15293884 0.5648804 0.3483734 0.7061157 0.5862732c0.14794922 0.2294159 0.22192383 0.55229187 0.22192383 0.9686432l0 40.644196c0 1.4104614 -0.2185669 2.366333 -0.6557007 2.8676453c-0.4303589 0.4928131 -1.0390015 0.7392273 -1.8258057 0.7392273l-0.121032715 0l0 6.181381l19.65039 0l0 -6.181381l-0.13116455 0c-0.7397461 0 -1.3382568 -0.24641418 -1.7955933 -0.7392273c-0.45056152 -0.50131226 -0.6758423 -1.4571838 -0.6758423 -2.8676453l0 -49.56579z" fill-rule="evenodd"/><path stroke="#595959" stroke-width="1.0" stroke-linejoin="round" stroke-linecap="butt" d="m698.13153 138.00099c-3.2212524 0 -6.072632 0.48431396 -8.554199 1.4529419c-2.4815063 0.9601288 -4.424988 2.4980469 -5.8305054 4.6137238c-1.4055786 2.1156921 -2.1082764 4.923874 -2.1082764 8.42453c0 2.3960876 0.3395996 4.3928223 1.0187988 5.990219c0.6859741 1.5888824 1.6072998 2.8549042 2.763977 3.7980347c1.1566772 0.9346466 2.4277344 1.6908569 3.8130493 2.268631c1.385376 0.56929016 2.7808228 1.062088 4.1863403 1.4784393c0.9885254 0.31437683 1.9266968 0.59051514 2.814392 0.8284302c0.8876953 0.23791504 1.6812134 0.5395508 2.3806152 0.9049072c0.7061157 0.36535645 1.2542114 0.82418823 1.6442871 1.3764801c0.39678955 0.54377747 0.5951538 1.2830048 0.5951538 2.2176514c0 0.9941101 -0.16479492 1.8055573 -0.49432373 2.434311c-0.32946777 0.6202545 -0.84729004 1.062088 -1.5534668 1.3255005c-0.69940186 0.26339722 -1.6274414 0.39509583 -2.7841187 0.39509583c-1.116333 0 -2.128479 -0.07647705 -3.036316 -0.2294159c-0.7765503 -0.13809204 -1.4793091 -0.32279968 -2.1082764 -0.5541382l0 0l0 -6.188034l-9.6032715 0l0 10.4127655c0.5783081 0.36535645 1.5265503 0.8369293 2.8446655 1.4147186c1.3248291 0.5692749 2.9892578 1.062088 4.993286 1.4784241c2.0040283 0.4248352 4.243469 0.6372528 6.7182617 0.6372528c4.09552 0 7.494995 -0.5352936 10.198425 -1.6058807c2.710144 -1.0705872 4.7141724 -2.752945 6.012146 -5.0470734c1.3046265 -2.3026123 1.9569702 -5.3062134 1.9569702 -9.010803c0 -2.2941132 -0.37322998 -4.222885 -1.119751 -5.7862854c-0.74645996 -1.5718994 -1.7384033 -2.8549042 -2.975769 -3.8490143c-1.2374268 -0.99412537 -2.5891113 -1.7885742 -4.055176 -2.3833466c-1.4660645 -0.6032715 -2.921997 -1.1385651 -4.367859 -1.6058807c-1.116333 -0.3653717 -2.1419067 -0.67974854 -3.0767212 -0.94314575c-0.92803955 -0.26339722 -1.7451172 -0.54803467 -2.451233 -0.85391235c-0.69940186 -0.3143921 -1.2340088 -0.71798706 -1.6038818 -1.2108002c-0.36987305 -0.501297 -0.5548096 -1.1682892 -0.5548096 -2.0009766c0 -1.206543 0.3597412 -2.0434723 1.0793457 -2.510788c0.72631836 -0.46733093 1.8325195 -0.70098877 3.3187866 -0.70098877c0.94818115 0 1.7921753 0.06373596 2.5319214 0.19117737c0.62677 0.10700989 1.2084961 0.2529602 1.7451782 0.4378357l0 0l0 4.9278717l9.421692 0l0 -9.393158c-0.37664795 -0.26341248 -1.1432495 -0.64151 -2.2999878 -1.1343231c-1.1566772 -0.50131226 -2.6865845 -0.9601288 -4.5897827 -1.3764648c-1.8964233 -0.41635132 -4.1862793 -0.6245117 -6.869568 -0.6245117z" fill-rule="evenodd"/></g></g><path fill="#000000" fill-opacity="0.0" d="m442.22833 315.24408l61.007874 0l0 40.0l-61.007874 0z" fill-rule="evenodd"/><path fill="#000000" d="m472.67236 329.79285q1.53125 0 2.390625 1.078125q1.015625 1.296875 1.015625 4.28125q0 2.96875 -1.03125 4.28125q-0.84375 1.0625 -2.375 1.0625q-1.53125 0 -2.46875 -1.171875q-0.9375 -1.171875 -0.9375 -4.203125q0 -2.953125 1.03125 -4.25q0.859375 -1.078125 2.375 -1.078125zm0 1.671875q-0.359375 0 -0.65625 0.234375q-0.28125 0.21875 -0.4375 0.828125q-0.203125 0.78125 -0.203125 2.625q0 1.84375 0.1875 2.53125q0.1875 0.6875 0.46875 0.921875q0.28125 0.234375 0.640625 0.234375q0.375 0 0.65625 -0.234375q0.28125 -0.234375 0.4375 -0.84375q0.21875 -0.765625 0.21875 -2.609375q0 -1.84375 -0.1875 -2.53125q-0.1875 -0.703125 -0.46875 -0.921875q-0.28125 -0.234375 -0.65625 -0.234375z" fill-rule="nonzero"/><path fill="#000000" fill-opacity="0.0" d="m593.0 307.24408l61.007874 0l0 57.007904l-61.007874 0z" fill-rule="evenodd"/><path fill="#000000" d="m625.65985 342.66803l-2.5625 0l0 -9.640625q-1.40625 1.3125 -3.3125 1.9375l0 -2.328125q1.015625 -0.328125 2.1875 -1.234375q1.171875 -0.921875 1.609375 -2.140625l2.078125 0l0 13.40625z" fill-rule="nonzero"/></g></svg>